<mxfile host="app.diagrams.net" modified="2024-06-02T12:09:30.724Z" agent="Mozilla/5.0 (Windows NT 10.0; Win64; x64) AppleWebKit/537.36 (KHTML, like Gecko) Chrome/126.0.0.0 Safari/537.36 Edg/126.0.0.0" etag="BHutTU81-LE2bLWUR3T3" version="24.4.10" type="github">
  <diagram name="Page-1" id="aTssREDrFI-PJiI-w0r0">
    <mxGraphModel dx="1184" dy="1094" grid="1" gridSize="10" guides="1" tooltips="1" connect="1" arrows="1" fold="1" page="1" pageScale="1" pageWidth="850" pageHeight="1100" math="0" shadow="0">
      <root>
        <mxCell id="0" />
        <mxCell id="1" parent="0" />
        <mxCell id="ludyrUufvdKQU43LzNZD-3" value="" style="edgeStyle=orthogonalEdgeStyle;rounded=0;orthogonalLoop=1;jettySize=auto;html=1;" edge="1" parent="1" source="ludyrUufvdKQU43LzNZD-1" target="ludyrUufvdKQU43LzNZD-2">
          <mxGeometry relative="1" as="geometry" />
        </mxCell>
        <mxCell id="ludyrUufvdKQU43LzNZD-4" value="No" style="edgeLabel;html=1;align=center;verticalAlign=middle;resizable=0;points=[];" vertex="1" connectable="0" parent="ludyrUufvdKQU43LzNZD-3">
          <mxGeometry x="-0.25" y="3" relative="1" as="geometry">
            <mxPoint as="offset" />
          </mxGeometry>
        </mxCell>
        <mxCell id="ludyrUufvdKQU43LzNZD-6" value="" style="edgeStyle=orthogonalEdgeStyle;rounded=0;orthogonalLoop=1;jettySize=auto;html=1;" edge="1" parent="1" source="ludyrUufvdKQU43LzNZD-1" target="ludyrUufvdKQU43LzNZD-5">
          <mxGeometry relative="1" as="geometry" />
        </mxCell>
        <mxCell id="ludyrUufvdKQU43LzNZD-7" value="Yes" style="edgeLabel;html=1;align=center;verticalAlign=middle;resizable=0;points=[];" vertex="1" connectable="0" parent="ludyrUufvdKQU43LzNZD-6">
          <mxGeometry x="-0.35" y="-2" relative="1" as="geometry">
            <mxPoint as="offset" />
          </mxGeometry>
        </mxCell>
        <mxCell id="ludyrUufvdKQU43LzNZD-1" value="Play game?" style="rounded=0;whiteSpace=wrap;html=1;" vertex="1" parent="1">
          <mxGeometry x="320" y="40" width="120" height="60" as="geometry" />
        </mxCell>
        <mxCell id="ludyrUufvdKQU43LzNZD-2" value="Exit" style="rounded=0;whiteSpace=wrap;html=1;" vertex="1" parent="1">
          <mxGeometry x="520" y="40" width="120" height="60" as="geometry" />
        </mxCell>
        <mxCell id="ludyrUufvdKQU43LzNZD-17" value="" style="edgeStyle=orthogonalEdgeStyle;rounded=0;orthogonalLoop=1;jettySize=auto;html=1;" edge="1" parent="1" source="ludyrUufvdKQU43LzNZD-5" target="ludyrUufvdKQU43LzNZD-16">
          <mxGeometry relative="1" as="geometry" />
        </mxCell>
        <mxCell id="ludyrUufvdKQU43LzNZD-5" value="Pick 2 cards for C and P" style="rounded=0;whiteSpace=wrap;html=1;" vertex="1" parent="1">
          <mxGeometry x="320" y="180" width="120" height="60" as="geometry" />
        </mxCell>
        <mxCell id="ludyrUufvdKQU43LzNZD-13" value="" style="rounded=0;orthogonalLoop=1;jettySize=auto;html=1;" edge="1" parent="1" source="ludyrUufvdKQU43LzNZD-10">
          <mxGeometry relative="1" as="geometry">
            <mxPoint x="380" y="620" as="targetPoint" />
          </mxGeometry>
        </mxCell>
        <mxCell id="ludyrUufvdKQU43LzNZD-14" value="No" style="edgeLabel;html=1;align=center;verticalAlign=middle;resizable=0;points=[];" vertex="1" connectable="0" parent="ludyrUufvdKQU43LzNZD-13">
          <mxGeometry x="-0.2889" y="-2" relative="1" as="geometry">
            <mxPoint as="offset" />
          </mxGeometry>
        </mxCell>
        <mxCell id="ludyrUufvdKQU43LzNZD-10" value="Blackjack?" style="rhombus;whiteSpace=wrap;html=1;rounded=0;" vertex="1" parent="1">
          <mxGeometry x="340" y="450" width="80" height="80" as="geometry" />
        </mxCell>
        <mxCell id="ludyrUufvdKQU43LzNZD-18" style="edgeStyle=orthogonalEdgeStyle;rounded=0;orthogonalLoop=1;jettySize=auto;html=1;exitX=0.5;exitY=1;exitDx=0;exitDy=0;entryX=0.5;entryY=0;entryDx=0;entryDy=0;" edge="1" parent="1" source="ludyrUufvdKQU43LzNZD-16" target="ludyrUufvdKQU43LzNZD-10">
          <mxGeometry relative="1" as="geometry" />
        </mxCell>
        <mxCell id="ludyrUufvdKQU43LzNZD-16" value="Show cards" style="whiteSpace=wrap;html=1;rounded=0;" vertex="1" parent="1">
          <mxGeometry x="320" y="320" width="120" height="60" as="geometry" />
        </mxCell>
        <mxCell id="ludyrUufvdKQU43LzNZD-23" value="" style="edgeStyle=orthogonalEdgeStyle;rounded=0;orthogonalLoop=1;jettySize=auto;html=1;" edge="1" parent="1" source="ludyrUufvdKQU43LzNZD-21" target="ludyrUufvdKQU43LzNZD-22">
          <mxGeometry relative="1" as="geometry" />
        </mxCell>
        <mxCell id="ludyrUufvdKQU43LzNZD-24" value="Yes" style="edgeLabel;html=1;align=center;verticalAlign=middle;resizable=0;points=[];" vertex="1" connectable="0" parent="ludyrUufvdKQU43LzNZD-23">
          <mxGeometry x="-0.1556" y="2" relative="1" as="geometry">
            <mxPoint as="offset" />
          </mxGeometry>
        </mxCell>
        <mxCell id="ludyrUufvdKQU43LzNZD-27" value="" style="edgeStyle=orthogonalEdgeStyle;rounded=0;orthogonalLoop=1;jettySize=auto;html=1;" edge="1" parent="1" source="ludyrUufvdKQU43LzNZD-21">
          <mxGeometry relative="1" as="geometry">
            <mxPoint x="480" y="660" as="targetPoint" />
          </mxGeometry>
        </mxCell>
        <mxCell id="ludyrUufvdKQU43LzNZD-32" value="No" style="edgeLabel;html=1;align=center;verticalAlign=middle;resizable=0;points=[];" vertex="1" connectable="0" parent="ludyrUufvdKQU43LzNZD-27">
          <mxGeometry x="-0.3" relative="1" as="geometry">
            <mxPoint as="offset" />
          </mxGeometry>
        </mxCell>
        <mxCell id="ludyrUufvdKQU43LzNZD-21" value="Pick card?" style="rhombus;whiteSpace=wrap;html=1;" vertex="1" parent="1">
          <mxGeometry x="340" y="620" width="80" height="80" as="geometry" />
        </mxCell>
        <mxCell id="ludyrUufvdKQU43LzNZD-29" value="" style="edgeStyle=orthogonalEdgeStyle;rounded=0;orthogonalLoop=1;jettySize=auto;html=1;" edge="1" parent="1" source="ludyrUufvdKQU43LzNZD-22" target="ludyrUufvdKQU43LzNZD-28">
          <mxGeometry relative="1" as="geometry" />
        </mxCell>
        <mxCell id="ludyrUufvdKQU43LzNZD-22" value="Pick card for P" style="whiteSpace=wrap;html=1;" vertex="1" parent="1">
          <mxGeometry x="320" y="790" width="120" height="60" as="geometry" />
        </mxCell>
        <mxCell id="ludyrUufvdKQU43LzNZD-43" value="" style="edgeStyle=orthogonalEdgeStyle;rounded=0;orthogonalLoop=1;jettySize=auto;html=1;" edge="1" parent="1" source="ludyrUufvdKQU43LzNZD-28" target="ludyrUufvdKQU43LzNZD-42">
          <mxGeometry relative="1" as="geometry" />
        </mxCell>
        <mxCell id="ludyrUufvdKQU43LzNZD-47" value="Yes" style="edgeLabel;html=1;align=center;verticalAlign=middle;resizable=0;points=[];" vertex="1" connectable="0" parent="ludyrUufvdKQU43LzNZD-43">
          <mxGeometry x="-0.2444" y="-1" relative="1" as="geometry">
            <mxPoint as="offset" />
          </mxGeometry>
        </mxCell>
        <mxCell id="ludyrUufvdKQU43LzNZD-28" value="P over?" style="rhombus;whiteSpace=wrap;html=1;" vertex="1" parent="1">
          <mxGeometry x="340" y="920" width="80" height="80" as="geometry" />
        </mxCell>
        <mxCell id="ludyrUufvdKQU43LzNZD-30" style="edgeStyle=orthogonalEdgeStyle;rounded=0;orthogonalLoop=1;jettySize=auto;html=1;exitX=0;exitY=0.5;exitDx=0;exitDy=0;entryX=-0.05;entryY=0.533;entryDx=0;entryDy=0;entryPerimeter=0;" edge="1" parent="1" source="ludyrUufvdKQU43LzNZD-28" target="ludyrUufvdKQU43LzNZD-16">
          <mxGeometry relative="1" as="geometry">
            <Array as="points">
              <mxPoint x="220" y="960" />
              <mxPoint x="220" y="352" />
            </Array>
          </mxGeometry>
        </mxCell>
        <mxCell id="ludyrUufvdKQU43LzNZD-31" value="No" style="edgeLabel;html=1;align=center;verticalAlign=middle;resizable=0;points=[];" vertex="1" connectable="0" parent="ludyrUufvdKQU43LzNZD-30">
          <mxGeometry x="-0.8905" y="4" relative="1" as="geometry">
            <mxPoint as="offset" />
          </mxGeometry>
        </mxCell>
        <mxCell id="ludyrUufvdKQU43LzNZD-35" value="" style="edgeStyle=orthogonalEdgeStyle;rounded=0;orthogonalLoop=1;jettySize=auto;html=1;" edge="1" parent="1" source="ludyrUufvdKQU43LzNZD-33">
          <mxGeometry relative="1" as="geometry">
            <mxPoint x="620" y="660" as="targetPoint" />
          </mxGeometry>
        </mxCell>
        <mxCell id="ludyrUufvdKQU43LzNZD-41" value="No" style="edgeLabel;html=1;align=center;verticalAlign=middle;resizable=0;points=[];" vertex="1" connectable="0" parent="ludyrUufvdKQU43LzNZD-35">
          <mxGeometry x="-0.0744" y="-2" relative="1" as="geometry">
            <mxPoint as="offset" />
          </mxGeometry>
        </mxCell>
        <mxCell id="ludyrUufvdKQU43LzNZD-46" style="edgeStyle=orthogonalEdgeStyle;rounded=0;orthogonalLoop=1;jettySize=auto;html=1;exitX=0.5;exitY=1;exitDx=0;exitDy=0;entryX=1;entryY=0.5;entryDx=0;entryDy=0;" edge="1" parent="1" source="ludyrUufvdKQU43LzNZD-33" target="ludyrUufvdKQU43LzNZD-42">
          <mxGeometry relative="1" as="geometry" />
        </mxCell>
        <mxCell id="ludyrUufvdKQU43LzNZD-33" value="C higher P" style="rhombus;whiteSpace=wrap;html=1;" vertex="1" parent="1">
          <mxGeometry x="480" y="620" width="80" height="80" as="geometry" />
        </mxCell>
        <mxCell id="ludyrUufvdKQU43LzNZD-38" value="" style="edgeStyle=orthogonalEdgeStyle;rounded=0;orthogonalLoop=1;jettySize=auto;html=1;" edge="1" parent="1" source="ludyrUufvdKQU43LzNZD-36" target="ludyrUufvdKQU43LzNZD-37">
          <mxGeometry relative="1" as="geometry" />
        </mxCell>
        <mxCell id="ludyrUufvdKQU43LzNZD-40" value="No" style="edgeLabel;html=1;align=center;verticalAlign=middle;resizable=0;points=[];" vertex="1" connectable="0" parent="ludyrUufvdKQU43LzNZD-38">
          <mxGeometry x="0.2" y="-1" relative="1" as="geometry">
            <mxPoint as="offset" />
          </mxGeometry>
        </mxCell>
        <mxCell id="ludyrUufvdKQU43LzNZD-49" value="" style="edgeStyle=orthogonalEdgeStyle;rounded=0;orthogonalLoop=1;jettySize=auto;html=1;" edge="1" parent="1" source="ludyrUufvdKQU43LzNZD-36" target="ludyrUufvdKQU43LzNZD-48">
          <mxGeometry relative="1" as="geometry" />
        </mxCell>
        <mxCell id="ludyrUufvdKQU43LzNZD-36" value="C &amp;gt;= 16" style="rhombus;whiteSpace=wrap;html=1;" vertex="1" parent="1">
          <mxGeometry x="620" y="620" width="80" height="80" as="geometry" />
        </mxCell>
        <mxCell id="ludyrUufvdKQU43LzNZD-39" style="edgeStyle=orthogonalEdgeStyle;rounded=0;orthogonalLoop=1;jettySize=auto;html=1;exitX=0;exitY=0.5;exitDx=0;exitDy=0;entryX=0.5;entryY=0;entryDx=0;entryDy=0;" edge="1" parent="1" source="ludyrUufvdKQU43LzNZD-37" target="ludyrUufvdKQU43LzNZD-33">
          <mxGeometry relative="1" as="geometry" />
        </mxCell>
        <mxCell id="ludyrUufvdKQU43LzNZD-37" value="Pick card for C" style="whiteSpace=wrap;html=1;" vertex="1" parent="1">
          <mxGeometry x="600" y="470" width="120" height="60" as="geometry" />
        </mxCell>
        <mxCell id="ludyrUufvdKQU43LzNZD-45" value="" style="edgeStyle=orthogonalEdgeStyle;rounded=0;orthogonalLoop=1;jettySize=auto;html=1;" edge="1" parent="1" source="ludyrUufvdKQU43LzNZD-42" target="ludyrUufvdKQU43LzNZD-44">
          <mxGeometry relative="1" as="geometry" />
        </mxCell>
        <mxCell id="ludyrUufvdKQU43LzNZD-42" value="Show C cards" style="whiteSpace=wrap;html=1;" vertex="1" parent="1">
          <mxGeometry x="320" y="1090" width="120" height="60" as="geometry" />
        </mxCell>
        <mxCell id="ludyrUufvdKQU43LzNZD-44" value="You lose" style="whiteSpace=wrap;html=1;" vertex="1" parent="1">
          <mxGeometry x="320" y="1230" width="120" height="60" as="geometry" />
        </mxCell>
        <mxCell id="ludyrUufvdKQU43LzNZD-48" value="You win" style="whiteSpace=wrap;html=1;" vertex="1" parent="1">
          <mxGeometry x="600" y="790" width="120" height="60" as="geometry" />
        </mxCell>
      </root>
    </mxGraphModel>
  </diagram>
</mxfile>
